<?xml version="1.0" standalone="no"?>
<!DOCTYPE svg PUBLIC "-//W3C//DTD SVG 20010904//EN"
 "http://www.w3.org/TR/2001/REC-SVG-20010904/DTD/svg10.dtd">
<svg version="1.0" xmlns="http://www.w3.org/2000/svg"
 width="600.000000pt" height="600.000000pt" viewBox="0 0 600.000000 600.000000"
 preserveAspectRatio="xMidYMid meet">
<metadata>
Created by potrace 1.11, written by Peter Selinger 2001-2013
</metadata>
<g transform="translate(0.000000,600.000000) scale(0.100000,-0.100000)"
fill="#000000" stroke="none">
<path d="M4404 4389 c-39 -11 -93 -62 -121 -114 -12 -22 -33 -85 -47 -140 -30
-122 -36 -174 -51 -450 -8 -166 -15 -258 -18 -261 -1 -1 -51 -15 -110 -32
l-108 -30 -8 22 c-5 11 -14 48 -22 81 -7 33 -13 62 -14 65 -4 16 -21 94 -52
234 -38 175 -66 248 -115 297 -76 76 -194 81 -261 11 -51 -53 -68 -112 -72
-250 -5 -137 -13 -285 -20 -342 -2 -19 -7 -71 -10 -115 -5 -75 -15 -168 -19
-171 -1 -2 -597 -165 -611 -168 -5 -1 -40 -10 -78 -20 -37 -11 -70 -16 -73
-13 -3 3 -24 68 -45 144 -43 151 -45 156 -80 228 -100 206 -301 196 -415 -20
-19 -35 -90 -234 -99 -275 -28 -132 -70 -270 -81 -270 -8 0 -14 6 -15 13 0 6
-2 35 -4 62 -4 64 -14 180 -20 225 -2 19 -6 62 -10 95 -14 138 -50 326 -84
445 -71 249 -182 408 -322 461 -95 36 -216 34 -322 -5 -212 -78 -453 -303
-621 -579 -80 -133 -202 -400 -246 -542 -7 -22 -17 -46 -23 -52 -5 -7 -7 -13
-3 -13 3 0 1 -12 -5 -27 -24 -63 -110 -346 -138 -458 -36 -139 -38 -176 -12
-268 39 -141 126 -207 223 -169 41 17 102 76 124 122 16 35 26 42 69 55 205
59 1062 285 1080 285 8 0 15 -24 20 -62 5 -35 9 -65 10 -68 28 -81 49 -120 84
-154 90 -88 208 -87 289 2 46 50 103 173 148 317 21 66 38 121 38 122 1 1 51
15 112 31 l111 30 28 -102 c15 -55 49 -167 76 -248 123 -374 233 -557 383
-636 44 -23 63 -27 136 -27 73 0 92 4 135 27 183 97 322 388 425 890 28 136
40 200 44 238 2 14 14 88 21 135 2 11 4 30 4 42 1 16 12 25 48 37 51 18 58 14
69 -34 3 -14 23 -78 45 -143 110 -329 241 -470 399 -427 81 22 150 108 190
238 20 64 23 79 35 156 4 21 8 48 11 59 7 38 21 244 24 343 0 23 -4 21 200 78
69 19 133 37 142 41 14 5 30 -19 88 -139 240 -494 501 -789 709 -804 161 -11
306 133 357 355 15 62 18 123 19 298 0 241 -5 304 -35 475 -54 302 -121 362
-345 304 -33 -9 -67 -17 -75 -19 -8 -2 -98 -28 -200 -59 -259 -77 -329 -96
-334 -88 -2 4 -19 43 -36 87 -73 184 -180 399 -246 495 -39 56 -115 127 -150
141 -41 15 -86 18 -120 8z m163 -578 c21 -36 57 -104 79 -152 l42 -86 -114
-32 c-138 -37 -144 -38 -139 -8 2 12 6 65 9 117 4 52 8 104 10 115 2 11 7 40
11 65 4 25 12 56 17 70 l9 25 19 -25 c11 -14 36 -54 57 -89z m-3259 -15 c88
-45 167 -243 197 -495 4 -30 8 -62 10 -73 2 -10 7 -51 10 -91 3 -39 8 -97 10
-127 3 -30 7 -108 10 -172 l5 -117 -38 -10 c-95 -25 -1082 -271 -1087 -271 -6
0 0 102 11 190 11 85 66 289 99 365 8 17 27 62 44 100 149 348 410 663 591
715 37 11 104 4 138 -14z m4262 -292 c13 -33 27 -95 34 -151 3 -24 8 -61 11
-83 27 -192 26 -378 0 -434 -37 -79 -91 -70 -189 29 -93 94 -218 277 -324 477
l-41 77 32 10 c130 41 382 99 435 100 26 1 34 -4 42 -25z m-1405 -364 c-2 -3
-6 -48 -10 -100 -7 -107 -8 -117 -20 -179 -7 -44 -8 -44 -20 -20 -17 32 -107
281 -103 284 2 2 35 11 73 22 45 12 72 15 77 9 4 -6 5 -13 3 -16z m-1891 -164
c9 -30 16 -57 16 -60 0 -7 -79 -30 -85 -24 -11 11 36 138 51 138 1 0 10 -24
18 -54z m1056 -88 c-5 -24 -11 -63 -14 -88 -3 -25 -13 -79 -21 -120 -8 -41
-17 -86 -19 -100 -56 -292 -191 -610 -260 -610 -75 0 -185 206 -289 540 -58
187 -69 232 -61 240 5 4 124 38 264 75 140 37 284 76 320 85 92 25 89 26 80
-22z"/>
</g>
</svg>
